# File created by Blade
# Date/Time:  Tue Sep 28 14:35:47 2010
#---------------------------------------------------------
:version 1.10
:name HOM
:units
  mass 1.0
  length 1.000000
  angle deg
:documentation
     Acclaim Skeleton File
:root
   axis xyz
   order TX TY TZ RX RY RZ
   position 0.000000 0.000000 0.000000
   orientation 0 0 0
:bonedata
   begin
      id 1
      name LeftUpLeg_dum
      direction 1.000000 0.000000 0.000000
      length 3.677894
      axis 0.0 0.0 0.0 xyz
   end
   begin
      id 2
      name RightUpLeg_dum
      direction -1.000000 0.000000 0.000000
      length 3.677894
      axis 0.0 0.0 0.0 xyz
   end
   begin
      id 3
      name Spine_dum
      direction 0.000000 1.000000 0.000000
      length 0.039370
      axis 0.0 0.0 0.0 xyz
   end
   begin
      id 4
      name LeftUpLeg
      direction 0.000000 -1.000000 0.000000
      length 18.389491
      axis 0.0 0.0 0.0 xyz
      dof rx ry rz
   end
   begin
      id 5
      name LeftLeg
      direction 0.000000 -1.000000 0.000000
      length 16.918313
      axis 0.0 0.0 0.0 xyz
      dof rx ry rz
   end
   begin
      id 6
      name LeftFoot
      direction 0.000000 -0.258819 0.965926
      length 6.436326
      axis 15.0 0.0 0.0 xyz
      dof rx ry rz
   end
   begin
      id 7
      name LeftToeBase
      direction 0.000000 0.000000 1.000000
      length 2.952750
      axis 0.0 0.0 0.0 xyz
      dof rx ry rz
   end
   begin
      id 8
      name RightUpLeg
      direction 0.000000 -1.000000 0.000000
      length 18.389491
      axis 0.0 0.0 0.0 xyz
      dof rx ry rz
   end
   begin
      id 9
      name RightLeg
      direction 0.000000 -1.000000 0.000000
      length 16.918313
      axis 0.0 0.0 0.0 xyz
      dof rx ry rz
   end
   begin
      id 10
      name RightFoot
      direction 0.000000 -0.258819 0.965926
      length 6.436326
      axis 15.0 0.0 0.0 xyz
      dof rx ry rz
   end
   begin
      id 11
      name RightToeBase
      direction 0.000000 0.000000 1.000000
      length 2.952750
      axis 0.0 0.0 0.0 xyz
      dof rx ry rz
   end
   begin
      id 12
      name Spine
      direction 0.000000 1.000000 0.000000
      length 9.194745
      axis 0.0 0.0 0.0 xyz
      dof rx ry rz
   end
   begin
      id 13
      name Spine1
      direction 0.000000 1.000000 0.000000
      length 0.000000
      axis 0.0 0.0 0.0 xyz
      dof rx ry rz
   end
   begin
      id 14
      name Spine1_dum1
      direction 0.000000 1.000000 0.000000
      length 9.194745
      axis 0.0 0.0 0.0 xyz
   end
   begin
      id 15
      name Spine1_dum2
      direction 0.000000 1.000000 0.000000
      length 9.194745
      axis 0.0 0.0 0.0 xyz
   end
   begin
      id 16
      name Spine1_dum3
      direction 0.000000 1.000000 0.000000
      length 9.194745
      axis 0.0 0.0 0.0 xyz
   end
   begin
      id 17
      name Neck
      direction 0.000000 1.000000 0.000000
      length 4.229598
      axis 0.0 0.0 0.0 xyz
      dof rx ry rz
   end
   begin
      id 18
      name Head
      direction 0.000000 1.000000 0.000000
      length 4.527550
      axis 0.0 0.0 0.0 xyz
      dof rx ry rz
   end
   begin
      id 19
      name LeftShoulder
      direction 1.000000 -0.000004 0.000000
      length 5.516839
      axis 0.0 0.0 -90.0 xyz
      dof rx ry rz
   end
   begin
      id 20
      name LeftArm
      direction 1.000000 -0.000004 0.000000
      length 11.033679
      axis 0.0 0.0 -90.0 xyz
      dof rx ry rz
   end
   begin
      id 21
      name LeftForeArm
      direction 1.000000 -0.000004 0.000000
      length 10.114232
      axis 0.0 0.0 -90.0 xyz
      dof rx ry rz
   end
   begin
      id 22
      name LeftHand
      direction 0.000000 0.000000 0.000000
      length 0.000000
      axis 0.0 0.0 -90.0 xyz
      dof rx ry rz
   end
   begin
      id 23
      name LeftHand_dum1
      direction 0.000000 0.000000 0.000000
      length 0.000000
      axis 0.0 0.0 -90.0 xyz
   end
   begin
      id 24
      name LeftHand_dum2
      direction 1.000000 -0.000004 0.000000
      length 3.937000
      axis 0.0 0.0 -90.0 xyz
   end
   begin
      id 25
      name LeftHandThumb
      direction 0.000000 0.000000 1.000000
      length 3.937000
      axis 0.0 0.0 -90.0 xyz
      dof rx ry rz
   end
   begin
      id 26
      name RightShoulder
      direction -1.000000 -0.000004 0.000000
      length 5.516839
      axis 0.0 0.0 90.0 xyz
      dof rx ry rz
   end
   begin
      id 27
      name RightArm
      direction -1.000000 -0.000004 0.000000
      length 11.033679
      axis 0.0 0.0 90.0 xyz
      dof rx ry rz
   end
   begin
      id 28
      name RightForeArm
      direction -1.000000 -0.000004 0.000000
      length 10.114232
      axis 0.0 0.0 90.0 xyz
      dof rx ry rz
   end
   begin
      id 29
      name RightHand
      direction 0.000000 0.000000 0.000000
      length 0.000000
      axis 0.0 0.0 90.0 xyz
      dof rx ry rz
   end
   begin
      id 30
      name RightHand_dum1
      direction 0.000000 0.000000 0.000000
      length 0.000000
      axis 0.0 0.0 90.0 xyz
   end
   begin
      id 31
      name RightHand_dum2
      direction -1.000000 -0.000004 0.000000
      length 5.393690
      axis 0.0 0.0 90.0 xyz
   end
   begin
      id 32
      name RightHandThumb
      direction 0.000000 0.000000 1.000000
      length 3.937000
      axis 0.0 0.0 90.0 xyz
      dof rx ry rz
   end
:hierarchy
   begin
      root LeftUpLeg_dum RightUpLeg_dum Spine_dum
      LeftUpLeg_dum LeftUpLeg
      RightUpLeg_dum RightUpLeg
      Spine_dum Spine
      LeftUpLeg LeftLeg
      LeftLeg LeftFoot
      LeftFoot LeftToeBase
      RightUpLeg RightLeg
      RightLeg RightFoot
      RightFoot RightToeBase
      Spine Spine1
      Spine1 Spine1_dum1 Spine1_dum2 Spine1_dum3
      Spine1_dum1 Neck
      Spine1_dum2 LeftShoulder
      Spine1_dum3 RightShoulder
      Neck Head
      LeftShoulder LeftArm
      LeftArm LeftForeArm
      LeftForeArm LeftHand
      LeftHand LeftHand_dum1 LeftHand_dum2
      LeftHand_dum1 LeftHandThumb
      RightShoulder RightArm
      RightArm RightForeArm
      RightForeArm RightHand
      RightHand RightHand_dum1 RightHand_dum2
      RightHand_dum1 RightHandThumb
   end

# File created by Blade
# Date/Time:  Tue Sep 28 14:35:42 2010
# Frame Rate: 200.000 fps
#------------------------------------------------------
:FULLY-SPECIFIED
:DEGREES
1083
root  3.037385 37.643026 91.021980 4.718383 -0.530701 -2.533950
LeftUpLeg  -23.641876 21.103981 -3.945843
LeftLeg  21.499757 -0.000000 0.000000
LeftFoot  4.478682 0.276780 16.932144
LeftToeBase  -6.980806 0.000000 -0.000000
RightUpLeg  -8.310198 -17.345944 -0.327439
RightLeg  39.631093 -0.000000 0.000000
RightFoot  5.617376 -2.117574 -16.864081
RightToeBase  -20.950525 0.000000 -0.000000
Spine  -17.617745 -0.084866 -1.771467
Spine1  22.342609 1.035921 5.041512
Neck  16.478070 3.183364 -6.832716
Head  -7.472173 2.070630 1.029198
LeftShoulder  -9.413088 13.525890 -33.673691
LeftArm  7.539393 -11.971106 -8.334744
LeftForeArm  12.691788 -0.000000 0.000000
LeftHand  3.679111 1.306144 -1.978261
LeftHandThumb  0.000000 -0.000000 0.000000
RightShoulder  2.483477 10.173668 18.217544
RightArm  1.541758 -25.547971 20.098751
RightForeArm  9.634865 -0.000000 0.000000
RightHand  2.053022 3.878436 2.713387
RightHandThumb  0.000000 -0.000000 0.000000
1084
root  3.080691 37.637816 91.120607 4.739464 -0.670317 -2.486392
LeftUpLeg  -23.542109 21.490787 -4.093151
LeftLeg  21.559401 -0.000000 0.000000
LeftFoot  4.235991 0.174472 17.233497
LeftToeBase  -7.083116 0.000000 -0.000000
RightUpLeg  -8.764365 -17.198771 -0.443714
RightLeg  40.455381 -0.000000 0.000000
RightFoot  5.748707 -2.212342 -16.835706
RightToeBase  -20.287621 0.000000 -0.000000
Spine  -17.621322 -0.068913 -1.797469
Spine1  22.372894 1.052576 5.005636
Neck  15.594653 3.547132 -6.982395
Head  -6.287657 1.565341 1.471997
LeftShoulder  -9.395722 13.818900 -33.576065
LeftArm  7.457313 -13.017480 -8.052373
LeftForeArm  12.471854 -0.000000 0.000000
LeftHand  3.719078 1.826772 -1.965251
LeftHandThumb  0.000000 -0.000000 0.000000
RightShoulder  2.494829 10.283333 18.000320
RightArm  1.500140 -25.189128 19.850110
RightForeArm  9.385931 -0.000000 0.000000
RightHand  1.907547 3.600485 2.620806
RightHandThumb  0.000000 -0.000000 0.000000
1085
root  3.124702 37.640498 91.216215 4.740181 -0.696703 -2.464833
LeftUpLeg  -23.333205 21.371144 -4.072220
LeftLeg  21.536326 -0.000000 0.000000
LeftFoot  4.108502 0.496773 16.967730
LeftToeBase  -7.162935 0.000000 -0.000000
RightUpLeg  -9.220354 -16.995470 -0.542530
RightLeg  41.241665 -0.000000 0.000000
RightFoot  5.895756 -2.208623 -16.110543
RightToeBase  -19.609405 0.000000 -0.000000
Spine  -17.617526 -0.104909 -1.814496
Spine1  22.426580 1.019795 4.986648
Neck  15.973439 3.374577 -7.078941
Head  -7.052610 1.803702 1.388227
LeftShoulder  -9.356048 14.085170 -33.416488
LeftArm  7.584822 -14.531696 -7.974102
LeftForeArm  11.935003 -0.000000 0.000000
LeftHand  3.940240 2.591327 -1.960570
LeftHandThumb  0.000000 -0.000000 0.000000
RightShoulder  2.511175 10.404733 17.854423
RightArm  1.480064 -24.964873 19.486964
RightForeArm  9.087453 -0.000000 0.000000
RightHand  1.913031 3.599034 2.672501
RightHandThumb  0.000000 -0.000000 0.000000
1086
root  3.170298 37.633455 91.312045 4.878670 -0.926676 -2.148307
LeftUpLeg  -23.302324 21.728909 -4.520195
LeftLeg  21.442735 -0.000000 0.000000
LeftFoot  3.958039 0.228015 17.164380
LeftToeBase  -7.197959 0.000000 -0.000000
RightUpLeg  -9.857583 -17.196094 -0.856816
RightLeg  42.075501 -0.000000 0.000000
RightFoot  5.869279 -2.482354 -17.144559
RightToeBase  -18.777534 0.000000 -0.000000
Spine  -17.598671 -0.072534 -2.022763
Spine1  22.242129 1.133861 4.798105
Neck  15.703677 3.849069 -7.500262
Head  -6.752530 1.772167 2.068608
LeftShoulder  -9.341187 14.426181 -33.468924
LeftArm  6.797851 -14.363084 -7.121492
LeftForeArm  12.714709 -0.000000 0.000000
LeftHand  3.663329 1.580056 -1.734071
LeftHandThumb  0.000000 -0.000000 0.000000
RightShoulder  2.485873 10.510632 17.789782
RightArm  1.424641 -24.856606 19.119140
RightForeArm  8.922509 -0.000000 0.000000
RightHand  1.665729 3.473340 2.502205
RightHandThumb  0.000000 -0.000000 0.000000
1087
root  3.202682 37.638021 91.408913 4.890929 -0.836445 -2.122328
LeftUpLeg  -23.089609 21.478518 -4.476673
LeftLeg  21.372548 -0.000000 0.000000
LeftFoot  3.794357 0.352477 16.828359
LeftToeBase  -6.963035 0.000000 -0.000000
RightUpLeg  -10.211736 -17.024272 -0.903333
RightLeg  42.652295 -0.000000 0.000000
RightFoot  5.776545 -2.671954 -16.579980
RightToeBase  -17.904797 0.000000 -0.000000
Spine  -17.618904 -0.140909 -2.090564
Spine1  22.264167 1.095910 4.777810
Neck  15.933256 3.397194 -6.996218
Head  -7.082938 2.417636 1.216226
LeftShoulder  -9.352343 14.909181 -33.128379
LeftArm  7.207951 -16.187802 -7.270087
LeftForeArm  11.947593 -0.000000 0.000000
LeftHand  3.994319 2.879712 -1.857458
LeftHandThumb  0.000000 -0.000000 0.000000
RightShoulder  2.431395 10.475048 17.639193
RightArm  1.422370 -24.287927 18.831294
RightForeArm  8.653747 -0.000000 0.000000
RightHand  1.718887 3.197284 2.446472
RightHandThumb  0.000000 -0.000000 0.000000
1088
root  3.227005 37.640568 91.502869 4.876539 -0.805338 -2.146559
LeftUpLeg  -22.875309 21.458080 -4.402858
LeftLeg  21.322937 -0.000000 0.000000
LeftFoot  3.518782 0.296556 16.716504
LeftToeBase  -6.805394 0.000000 -0.000000
RightUpLeg  -10.612297 -17.073526 -0.888625
RightLeg  43.305960 -0.000000 0.000000
RightFoot  5.768975 -2.857816 -16.445038
RightToeBase  -17.330023 0.000000 -0.000000
Spine  -17.597043 -0.195454 -2.121578
Spine1  22.352150 1.052750 4.758470
Neck  16.078063 3.604177 -7.189660
Head  -7.515599 2.251116 1.477728
LeftShoulder  -9.501158 15.298141 -32.937375
LeftArm  7.009870 -15.884971 -6.850903
LeftForeArm  12.382494 -0.000000 0.000000
LeftHand  3.765226 1.788439 -1.169686
LeftHandThumb  0.000000 -0.000000 0.000000
RightShoulder  2.369714 10.744800 17.490894
RightArm  1.390199 -24.088315 18.550066
RightForeArm  8.411792 -0.000000 0.000000
RightHand  1.654772 3.224706 2.155610
RightHandThumb  0.000000 -0.000000 0.000000
1089
root  3.261518 37.645198 91.596305 4.882873 -0.802860 -2.151242
LeftUpLeg  -22.639798 21.259818 -4.330577
LeftLeg  21.212790 -0.000000 0.000000
LeftFoot  3.417576 0.431469 16.594009
LeftToeBase  -6.789446 0.000000 -0.000000
RightUpLeg  -11.006647 -17.165940 -0.899040
RightLeg  43.886073 -0.000000 0.000000
RightFoot  5.709124 -3.051400 -16.506831
RightToeBase  -16.527190 0.000000 -0.000000
Spine  -17.578821 -0.243884 -2.129452
Spine1  22.327659 1.010915 4.741468
Neck  15.734654 3.570372 -7.117280
Head  -7.109093 2.103636 1.354594
LeftShoulder  -9.496230 15.421571 -32.726248
LeftArm  6.910955 -16.686651 -6.643597
LeftForeArm  12.151013 -0.000000 0.000000
LeftHand  4.004015 2.078324 -1.211815
LeftHandThumb  0.000000 -0.000000 0.000000
RightShoulder  2.351836 10.823083 17.312092
RightArm  1.378195 -23.875522 18.227205
RightForeArm  8.176822 -0.000000 0.000000
RightHand  1.655077 3.418351 2.032886
RightHandThumb  0.000000 -0.000000 0.000000
